<svg xmlns="http://www.w3.org/2000/svg" viewBox="0 0 128 128" width="48" height="48">
  <path fill="#8B5CF6" d="M64 8C33.072 8 8 33.072 8 64s25.072 56 56 56 56-25.072 56-56S94.928 8 64 8z"/>
  <path fill="#FFFFFF" d="M64 16c26.51 0 48 21.49 48 48s-21.49 48-48 48S16 90.51 16 64s21.49-48 48-48z"/>
  <path fill="#8B5CF6" d="M64 24c22.091 0 40 17.909 40 40s-17.909 40-40 40S24 86.091 24 64s17.909-40 40-40z"/>
  <path fill="#FFFFFF" d="M64 32c17.673 0 32 14.327 32 32S81.673 96 64 96 32 81.673 32 64s14.327-32 32-32z"/>
  <path fill="#8B5CF6" d="M64 40c13.255 0 24 10.745 24 24s-10.745 24-24 24-24-10.745-24-24 10.745-24 24-24z"/>
  <path fill="#FFFFFF" d="M64 48c8.837 0 16 7.163 16 16s-7.163 16-16 16-16-7.163-16-16 7.163-16 16-16z"/>
  <path fill="#8B5CF6" d="M64 56c4.418 0 8 3.582 8 8s-3.582 8-8 8-8-3.582-8-8 3.582-8 8-8z"/>
</svg>
