<svg xmlns="http://www.w3.org/2000/svg" viewBox="0 0 128 128" width="48" height="48">
  <path fill="#83CD29" d="M112.571 28.221c-1.712-1.134-3.812-1.592-5.592-1.592-2.176 0-4.356.848-6.017 2.508L75.747 49.348c-.065.065-.065.065-.065.13L58.78 66.315c-.065.065-.065.065-.065.13L45.409 79.686c-.065.065-.065.065-.065.13L28.442 96.653c-.065.065-.065.065-.065.13L7.108 118.052c-1.66 1.66-2.508 3.841-2.508 6.017 0 1.78.458 3.88 1.592 5.592.848 1.273 2.508 2.508 4.356 2.508 1.78 0 3.88-.458 5.592-1.592L38.442 108.3c.065-.065.065-.065.065-.13l17.034-17.034c.065-.065.065-.065.065-.13l13.315-13.315c.065-.065.065-.065.065-.13l17.034-17.034c.065-.065.065-.065.065-.13l25.197-25.197c1.66-1.66 2.508-3.841 2.508-6.017 0-1.78-.458-3.88-1.592-5.592z"/>
  <path fill="#83CD29" d="M87.935 75.747c-.065-.065-.065-.065-.13-.065L62.608 50.485c-.065-.065-.065-.065-.13-.065L45.409 33.286c-.065-.065-.065-.065-.13-.065L20.176 8.053c-1.66-1.66-3.841-2.508-6.017-2.508-1.78 0-3.88.458-5.592 1.592-1.134 1.712-1.592 3.812-1.592 5.592 0 2.176.848 4.356 2.508 6.017l25.103 25.103c.065.065.065.065.13.065l17.034 17.034c.065.065.065.065.13.065l17.034 17.034c.065.065.065.065.13.065l25.197 25.197c1.66 1.66 3.841 2.508 6.017 2.508 1.78 0 3.88-.458 5.592-1.592 1.134-1.712 1.592-3.812 1.592-5.592 0-2.176-.848-4.356-2.508-6.017z"/>
  <path fill="#83CD29" d="M64.038 127.63c-35.228 0-63.87-28.642-63.87-63.87S28.81.89 64.038.89s63.87 28.642 63.87 63.87-28.642 63.87-63.87 63.87zm0-120.576c-31.233 0-56.706 25.473-56.706 56.706s25.473 56.706 56.706 56.706 56.706-25.473 56.706-56.706S95.271 7.054 64.038 7.054z"/>
</svg>
