<svg xmlns="http://www.w3.org/2000/svg" viewBox="0 0 128 128" width="48" height="48">
  <defs>
    <linearGradient id="python-gradient" x1="0%" y1="0%" x2="100%" y2="100%">
      <stop offset="0%" style="stop-color:#3776AB;stop-opacity:1" />
      <stop offset="100%" style="stop-color:#FFD43B;stop-opacity:1" />
    </linearGradient>
  </defs>
  <path fill="url(#python-gradient)" d="M63.391 1.988c-4.222.02-8.252.379-11.8 1.007-10.45 1.884-20.944 9.192-25.25 19.14-.346.75-.676 1.508-.98 2.28-1.253 3.79-2.053 7.76-2.053 11.87v23.72c0 4.11.8 8.08 2.053 11.87.304.772.634 1.53.98 2.28 4.306 9.948 14.8 17.256 25.25 19.14 3.548.628 7.578.987 11.8 1.007 4.222-.02 8.252-.379 11.8-1.007 10.45-1.884 20.944-9.192 25.25-19.14.346-.75.676-1.508.98-2.28 1.253-3.79 2.053-7.76 2.053-11.87V35.275c0-4.11-.8-8.08-2.053-11.87-.304-.772-.634-1.53-.98-2.28-4.306-9.948-14.8-17.256-25.25-19.14-3.548-.628-7.578-.987-11.8-1.007zM50.038 11.876c3.001.05 5.985.445 8.88 1.182 5.98 1.502 11.14 5.12 15.617 10.12 4.477 4.998 7.58 11.14 9.377 18.064 1.796 6.924 2.197 14.54 1.182 22.36-.445 3.501-1.08 6.96-1.902 10.36-1.65 6.77-4.794 12.73-9.377 17.86-4.583 5.13-10.35 9.35-16.617 12.66-6.267 3.31-13.08 5.71-20.437 7.18-3.679.735-7.413 1.113-11.2 1.113-3.787 0-7.521-.378-11.2-1.113-7.357-1.47-14.17-3.87-20.437-7.18-6.267-3.31-12.034-7.53-16.617-12.66-4.583-5.13-7.727-11.09-9.377-17.86-.822-3.4-1.457-6.86-1.902-10.36-1.015-7.82-.614-15.436 1.182-22.36 1.796-6.924 4.9-13.066 9.377-18.064 4.477-4.998 9.637-8.616 15.617-10.12 2.895-.737 5.879-1.132 8.88-1.182h.038z"/>
  <path fill="#FFD43B" d="M64.038 24.876c-2.108.05-4.194.445-6.257 1.182-4.125 1.502-7.682 5.12-10.77 10.12-3.088 4.998-5.23 11.14-6.47 18.064-1.24 6.924-1.516 14.54-.826 22.36.276 3.501.745 6.96 1.398 10.36 1.139 6.77 3.309 12.73 6.47 17.86 3.16 5.13 7.142 9.35 11.945 12.66 4.803 3.31 9.03 5.71 13.682 7.18 2.54.735 5.116 1.113 7.73 1.113 2.614 0 5.19-.378 7.73-1.113 4.652-1.47 8.879-3.87 13.682-7.18 4.803-3.31 8.785-7.53 11.945-12.66 3.16-5.13 5.33-11.09 6.47-17.86.653-3.4 1.122-6.86 1.398-10.36.69-7.82.414-15.436-.826-22.36-1.24-6.924-3.382-13.066-6.47-18.064-3.088-4.998-6.645-8.616-10.77-10.12-2.063-.737-4.149-1.132-6.257-1.182h-.038z"/>
</svg>
