<svg xmlns="http://www.w3.org/2000/svg" viewBox="0 0 128 128" width="48" height="48">
  <g fill="#61DAFB">
    <circle cx="64" cy="64" r="11.4"/>
    <path d="M107.3 45.2c-2.2-.8-4.5-1.6-6.9-2.3.6-2.4 1.1-4.8 1.5-7.1 2.1-13.2-.2-22.5-6.1-26.1-1.9-1.2-4-1.9-6.4-2.4-7.6-1.5-15.7-1.4-23.2-.1-4.5.8-8.7 2.1-12.5 3.8-1.8.8-3.5 1.6-5.2 2.4-3.7-1.8-7.4-3.1-11.2-4-5.6-1.1-11.2-1.6-16.9-1.4-4.6.2-9.1.9-13.5 2.1-1.8.5-3.5 1.1-5.2 1.7-4.5 1.4-8.9 3.3-13 5.6-3.8 2.1-7.4 4.5-10.8 7.2-3.4 2.7-6.6 5.7-9.5 9.1-2.9 3.4-5.5 7-7.8 10.9-2.3 3.9-4.1 8-5.6 12.2-1.4 4.2-2.5 8.5-3.2 12.9-.7 4.4-.9 8.9-.6 13.4.3 4.5 1.1 8.9 2.3 13.2 1.2 4.3 2.8 8.4 4.9 12.3 2.1 3.9 4.6 7.6 7.5 11.1 2.9 3.5 6.2 6.8 9.9 9.8 3.7 3 7.7 5.6 12.1 7.8 4.4 2.2 9 4 13.8 5.4 4.8 1.4 9.7 2.4 14.7 3.1 5 .7 10.1 1 15.2.9 5.1-.1 10.2-.6 15.2-1.5 5-.9 9.9-2.2 14.6-4 4.7-1.8 9.2-4.1 13.5-6.8 4.3-2.7 8.3-5.8 12.1-9.3 3.8-3.5 7.2-7.3 10.3-11.4 3.1-4.1 5.8-8.5 8.2-13.1 2.4-4.6 4.4-9.4 6-14.4 1.6-5 2.8-10.1 3.6-15.3.8-5.2 1.2-10.5 1.2-15.8 0-5.3-.4-10.6-1.2-15.8-.8-5.2-2-10.3-3.6-15.3-1.6-5-3.6-9.8-6-14.4-2.4-4.6-5.1-9-8.2-13.1-3.1-4.1-6.5-7.9-10.3-11.4-3.8-3.5-7.8-6.6-12.1-9.3-4.3-2.7-8.8-5-13.5-6.8-4.7-1.8-9.6-3.1-14.6-4-5-.9-10.1-1.4-15.2-1.5-5.1-.1-10.2.2-15.2.9-5 .7-9.9 1.7-14.7 3.1-4.8 1.4-9.4 3.2-13.8 5.4-4.4 2.2-8.4 4.8-12.1 7.8-3.7 3-7 6.3-9.9 9.8-2.9 3.5-5.4 7.2-7.5 11.1-2.1 3.9-3.7 8-4.9 12.3-1.2 4.3-2 8.7-2.3 13.2-.3 4.5-.1 9 .6 13.4.7 4.4 1.8 8.7 3.2 12.9 1.5 4.2 3.3 8.3 5.6 12.2 2.3 3.9 4.9 7.5 7.8 10.9 2.9 3.4 6.1 6.4 9.5 9.1 3.4 2.7 7 4.5 10.8 7.2 4.1 2.3 8.5 4.2 13 5.6 1.7.6 3.4 1.2 5.2 1.7 4.4 1.2 8.9 1.9 13.5 2.1 5.7.2 11.3-.3 16.9-1.4 3.8-.9 7.5-2.2 11.2-4 1.7-.8 3.4-1.6 5.2-2.4 3.8-1.7 8-3 12.5-3.8 7.5-1.3 15.6-1.4 23.2-.1 2.4.5 4.5 1.2 6.4 2.4 5.9 3.6 8.2 12.9 6.1 26.1-.4 2.3-.9 4.7-1.5 7.1-2.4.7-4.7 1.5-6.9 2.3C100.5 47.1 95.7 48 91 48c-4.7 0-9.5-.9-13.7-2.8zM92.5 28.7c4.9 2.4 6.5 9.8 5.8 15.3-.3 2.7-.8 5.4-1.4 8.1-5.2-1.2-10.7-2-16.5-2.5-3.4-.4-6.9-.7-10.4-.9-3.5-.2-7-.3-10.5-.3-3.5 0-7 .1-10.5.3-3.4.2-6.9.5-10.4.9-5.8.5-11.3 1.3-16.5 2.5-.6-2.7-1.1-5.4-1.4-8.1-.7-5.5.9-12.9 5.8-15.3 1.7-.8 3.5-1.4 5.4-1.9 2.9-.7 6-1.1 9.2-1.4 3.2-.3 6.4-.4 9.6-.4 3.2 0 6.4.1 9.6.4 3.2.3 6.3.7 9.2 1.4 1.9.5 3.7 1.1 5.4 1.9zM81.3 74c-1.8 3.2-3.9 6.1-6.1 8.9-2.2 2.8-4.6 5.4-7.2 7.8-2.6 2.4-5.4 4.6-8.4 6.6-3 2-6.2 3.7-9.6 5.1-3.4 1.4-7 2.5-10.7 3.3-3.7.8-7.6 1.3-11.5 1.5-3.9.2-7.9.2-11.8 0-3.9-.2-7.8-.7-11.5-1.5-3.7-.8-7.3-1.9-10.7-3.3-3.4-1.4-6.6-3.1-9.6-5.1-3-2-5.8-4.2-8.4-6.6-2.6-2.4-5-5-7.2-7.8-2.2-2.8-4.3-5.7-6.1-8.9-1.8-3.2-3.4-6.6-4.7-10.2-1.3-3.6-2.3-7.4-3-11.2-.7-3.8-1.1-7.7-1.1-11.7 0-4 .4-7.9 1.1-11.7.7-3.8 1.7-7.6 3-11.2 1.3-3.6 2.9-7 4.7-10.2 1.8-3.2 3.9-6.1 6.1-8.9 2.2-2.8 4.6-5.4 7.2-7.8 2.6-2.4 5.4-4.6 8.4-6.6 3-2 6.2-3.7 9.6-5.1 3.4-1.4 7-2.5 10.7-3.3 3.7-.8 7.6-1.3 11.5-1.5 3.9-.2 7.9-.2 11.8 0 3.9.2 7.8.7 11.5 1.5 3.7.8 7.3 1.9 10.7 3.3 3.4 1.4 6.6 3.1 9.6 5.1 3 2 5.8 4.2 8.4 6.6 2.6 2.4 5 5 7.2 7.8 2.2 2.8 4.3 5.7 6.1 8.9 1.8 3.2 3.4 6.6 4.7 10.2 1.3 3.6 2.3 7.4 3 11.2.7 3.8 1.1 7.7 1.1 11.7 0 4-.4 7.9-1.1 11.7-.7 3.8-1.7 7.6-3 11.2-1.3 3.6-2.9 7-4.7 10.2zM64 97.6c-2.4-2.7-4.7-5.4-6.9-8.1-2.2-2.7-4.3-5.5-6.3-8.4-2-2.9-3.8-5.8-5.5-8.8-1.7-3-3.2-6-4.5-9.1-1.3-3.1-2.4-6.2-3.2-9.4-.8-3.2-1.4-6.4-1.7-9.6-.3-3.2-.4-6.5-.2-9.7.2-3.2.7-6.4 1.4-9.5 1.7-3.1 2.6-6.1 3.8-9.1 2.2-3 3.6-6 5.3-8.9 1.7-2.9 3.6-5.7 5.7-8.4 2.1-2.7 4.4-5.3 6.9-7.8 2.5-2.5 5.1-4.9 7.9-7.2 2.8-2.3 5.7-4.4 8.8-6.4 3.1-2 6.3-3.7 9.7-5.2 3.4-1.5 6.9-2.7 10.5-3.6 3.6-.9 7.3-1.5 11-1.8 3.7-.3 7.5-.4 11.2-.2 3.7.2 7.4.7 11 1.4 3.6.7 7.1 1.7 10.5 3 3.4 1.3 6.7 2.9 9.9 4.8 3.2 1.9 6.3 4.1 9.3 6.6 3 2.5 5.8 5.2 8.4 8.1 2.6 2.9 5 6 7.2 9.3 2.2 3.3 4.1 6.7 5.8 10.3 1.7 3.6 3.1 7.3 4.3 11.1 1.2 3.8 2.1 7.7 2.7 11.6.6 3.9.9 7.9.9 11.9 0 4-.3 8-.9 11.9-.6 3.9-1.5 7.8-2.7 11.6-1.2 3.8-2.6 7.5-4.3 11.1-1.7 3.6-3.6 7-5.8 10.3-2.2 3.3-4.6 6.4-7.2 9.3-2.6 2.9-5.4 5.6-8.4 8.1-3 2.5-6.1 4.7-9.3 6.6-3.2 1.9-6.5 3.5-9.9 4.8-3.4 1.3-6.9 2.3-10.5 3-3.6.7-7.3 1.2-11 1.4-3.7.2-7.5.1-11.2-.2-3.7-.3-7.4-.9-11-1.8-3.6-.9-7.1-2.1-10.5-3.6-3.4-1.5-6.6-3.2-9.7-5.2-3.1-2-6.2-4.1-8.8-6.4-2.6-2.3-5.1-4.7-7.9-7.2-2.8-2.5-5.4-4.9-6.9-7.8z"/>
  </g>
  <g fill="#61DAFB">
    <circle cx="64" cy="64" r="3"/>
    <circle cx="64" cy="64" r="1"/>
  </g>
</svg>
